<svg id="katman_1" data-name="katman 1" xmlns="http://www.w3.org/2000/svg" viewBox="0 0 144.34 38.1"><defs><style>.cls-1{fill:#fff;}</style></defs><title>download-appstore</title><g id="Group_4289" data-name="Group 4289"><path id="Path_1446" data-name="Path 1446" class="cls-1" d="M-120.79,127a7.88,7.88,0,0,1,3.76-6.6,8.08,8.08,0,0,0-6.36-3.43c-2.67-.29-5.26,1.6-6.62,1.6s-3.49-1.58-5.75-1.53a8.47,8.47,0,0,0-7.12,4.34c-3.07,5.33-.78,13.16,2.17,17.47,1.48,2.11,3.2,4.46,5.46,4.38s3-1.41,5.7-1.41,3.41,1.41,5.71,1.36,3.86-2.12,5.29-4.25a17.51,17.51,0,0,0,2.41-4.93A7.63,7.63,0,0,1-120.79,127Zm-4.34-12.87a7.78,7.78,0,0,0,1.77-5.56,7.93,7.93,0,0,0-5.11,2.64,7.43,7.43,0,0,0-1.82,5.35A6.54,6.54,0,0,0-125.13,114.09Z" transform="translate(144.34 -108.53)"/><g id="Group_371" data-name="Group 371"><path id="Path_1448" data-name="Path 1448" class="cls-1" d="M-85.75,141.76H-88.6l-1.56-4.9h-5.41l-1.48,4.9h-2.77l5.36-16.66h3.32Zm-4.87-6.95L-92,130.46c-.15-.44-.43-1.49-.84-3.14h0c-.17.71-.43,1.76-.79,3.14l-1.39,4.35Zm18.64.79a6.84,6.84,0,0,1-1.67,4.85,4.9,4.9,0,0,1-3.7,1.58,3.71,3.71,0,0,1-3.43-1.7v6.3h-2.67V133.69c0-1.28,0-2.6-.1-3.94h2.35l.15,1.9h0a4.74,4.74,0,0,1,6.57-1.38,4.9,4.9,0,0,1,1,.9A6.72,6.72,0,0,1-72,135.61Zm-2.72.1a5,5,0,0,0-.79-2.89,2.73,2.73,0,0,0-2.33-1.18,2.79,2.79,0,0,0-1.79.65,3,3,0,0,0-1,1.72,3.17,3.17,0,0,0-.12.81v2A3.19,3.19,0,0,0-80,139a2.69,2.69,0,0,0,2.08.9,2.76,2.76,0,0,0,2.35-1.17,5.09,5.09,0,0,0,.85-3.06Zm16.53-.1a6.83,6.83,0,0,1-1.66,4.85,4.9,4.9,0,0,1-3.7,1.58,3.71,3.71,0,0,1-3.43-1.7v6.3h-2.67V133.69c0-1.28,0-2.6-.1-3.94h2.34l.15,1.9h0a4.75,4.75,0,0,1,6.58-1.38,4.61,4.61,0,0,1,1,.9,6.61,6.61,0,0,1,1.42,4.44Zm-2.72.1a4.93,4.93,0,0,0-.79-2.89A2.72,2.72,0,0,0-64,131.63a2.77,2.77,0,0,0-1.79.65,3,3,0,0,0-1,1.72,3.19,3.19,0,0,0-.13.81v2a3.3,3.3,0,0,0,.8,2.22,2.73,2.73,0,0,0,2.09.9,2.76,2.76,0,0,0,2.35-1.17,5.08,5.08,0,0,0,.84-3.06Zm18.17,1.39a4.44,4.44,0,0,1-1.48,3.46A6.52,6.52,0,0,1-48.73,142,8,8,0,0,1-53,141l.62-2.22a7.48,7.48,0,0,0,3.86,1,3.64,3.64,0,0,0,2.34-.68,2.22,2.22,0,0,0,.85-1.82,2.3,2.3,0,0,0-.7-1.7,6.38,6.38,0,0,0-2.3-1.29q-4.38-1.63-4.38-4.77a4.2,4.2,0,0,1,1.55-3.36,6.1,6.1,0,0,1,4.09-1.31,8,8,0,0,1,3.78.79l-.67,2.18a6.47,6.47,0,0,0-3.2-.77,3.28,3.28,0,0,0-2.21.69,2,2,0,0,0-.67,1.51,2.06,2.06,0,0,0,.77,1.63,8.54,8.54,0,0,0,2.42,1.29,8.23,8.23,0,0,1,3.17,2,4.22,4.22,0,0,1,1,2.88Zm8.85-5.34h-2.94v5.83c0,1.49.52,2.23,1.56,2.23a5.2,5.2,0,0,0,1.18-.13l.08,2a6.1,6.1,0,0,1-2.08.3,3.18,3.18,0,0,1-2.47-1,4.72,4.72,0,0,1-.89-3.23v-6.07h-1.75v-2h1.75v-2.2l2.62-.79v3h2.94Zm13.25,3.9a6.58,6.58,0,0,1-1.58,4.55A5.66,5.66,0,0,1-26.6,142a5.39,5.39,0,0,1-4.22-1.75,6.48,6.48,0,0,1-1.57-4.43,6.6,6.6,0,0,1,1.62-4.57,5.67,5.67,0,0,1,4.37-1.78,5.51,5.51,0,0,1,4.25,1.76,6.31,6.31,0,0,1,1.53,4.4Zm-2.77.06a5.39,5.39,0,0,0-.71-2.83,2.63,2.63,0,0,0-2.4-1.43,2.68,2.68,0,0,0-2.45,1.43,5.46,5.46,0,0,0-.72,2.88,5.41,5.41,0,0,0,.72,2.84,2.72,2.72,0,0,0,3.71,1.09,2.61,2.61,0,0,0,1.11-1.12,5.3,5.3,0,0,0,.74-2.86Zm11.45-3.62a4.76,4.76,0,0,0-.84-.07A2.53,2.53,0,0,0-15,133.08a4,4,0,0,0-.66,2.37v6.3h-2.67v-8.22c0-1.26,0-2.52-.08-3.78H-16l.1,2.3h.07a4.12,4.12,0,0,1,1.33-1.9,3.3,3.3,0,0,1,1.93-.65,4.91,4.91,0,0,1,.67.05ZM0,135.18a7,7,0,0,1-.1,1.21h-8a3.47,3.47,0,0,0,1.16,2.72,4,4,0,0,0,2.62.84,8.72,8.72,0,0,0,3.24-.57l.42,1.86a10.12,10.12,0,0,1-4,.74,5.86,5.86,0,0,1-4.39-1.64,6.09,6.09,0,0,1-1.59-4.42A6.93,6.93,0,0,1-9.2,131.4,5.12,5.12,0,0,1-5,129.48a4.47,4.47,0,0,1,3.94,1.93A6.56,6.56,0,0,1,0,135.18Zm-2.55-.69a3.58,3.58,0,0,0-.51-2.05,2.34,2.34,0,0,0-2.13-1.12,2.57,2.57,0,0,0-2.13,1.09,4.08,4.08,0,0,0-.79,2.08Zm-93.79-15.28a17.64,17.64,0,0,1-1.92-.1v-8a14.24,14.24,0,0,1,2.26-.17c3.06,0,4.47,1.51,4.47,4C-91.53,117.68-93.19,119.21-96.34,119.21Zm.45-7.29a5.41,5.41,0,0,0-1.06.08v6.13a6.62,6.62,0,0,0,.89,0c2,0,3.15-1.14,3.15-3.28a2.67,2.67,0,0,0-2.34-3A2.29,2.29,0,0,0-95.89,111.92Zm8.76,7.35A2.82,2.82,0,0,1-90,116.5a2.44,2.44,0,0,1,0-.27,2.88,2.88,0,0,1,2.62-3.11H-87a2.79,2.79,0,0,1,2.86,2.72c0,.1,0,.2,0,.31a2.89,2.89,0,0,1-2.64,3.12Zm0-5.2c-1,0-1.56.88-1.56,2.12s.62,2.1,1.54,2.1,1.55-.94,1.55-2.12-.61-2.1-1.53-2.1Zm12.73-.84-1.85,5.9h-1.2l-.77-2.56a17.74,17.74,0,0,1-.47-1.91h0a12.39,12.39,0,0,1-.47,1.91l-.81,2.56h-1.22l-1.74-5.9h1.35l.67,2.81c.15.66.29,1.3.4,1.9h0a16.72,16.72,0,0,1,.49-1.88l.84-2.82h1.07l.8,2.76c.18.64.34,1.28.47,1.94h0a18.21,18.21,0,0,1,.4-2l.72-2.75Zm6.8,5.9h-1.32v-3.38c0-1-.4-1.57-1.19-1.57a1.36,1.36,0,0,0-1.31,1.41v3.55h-1.31v-4.22c0-.52,0-1.08,0-1.69h1.15l.06.92h0a2.14,2.14,0,0,1,1.87-1c1.24,0,2.06,1,2.06,2.49Zm3.61,0h-1.31v-8.6h1.31Zm4.79.14A2.82,2.82,0,0,1-62,116.5c0-.09,0-.18,0-.27a2.88,2.88,0,0,1,2.62-3.11,1.74,1.74,0,0,1,.32,0,2.79,2.79,0,0,1,2.86,2.72c0,.1,0,.2,0,.3a2.9,2.9,0,0,1-2.63,3.13Zm0-5.2c-.95,0-1.56.88-1.56,2.12s.62,2.1,1.54,2.1,1.54-1,1.54-2.13-.6-2.1-1.52-2.1Zm8.06,5.06-.1-.68h0a2,2,0,0,1-1.73.81,1.71,1.71,0,0,1-1.81-1.62v-.11c0-1.46,1.26-2.21,3.45-2.21v-.11q0-1.17-1.23-1.17a2.73,2.73,0,0,0-1.54.44l-.26-.86a3.67,3.67,0,0,1,2-.51c1.54,0,2.32.81,2.32,2.44v2.17a8.35,8.35,0,0,0,.09,1.41Zm-.18-2.94c-1.46,0-2.19.35-2.19,1.19a.83.83,0,0,0,.74.92.43.43,0,0,0,.16,0,1.25,1.25,0,0,0,1.29-1.2Zm7.65,2.94-.06-.94h0a2,2,0,0,1-1.9,1.08c-1.42,0-2.48-1.25-2.48-3s1.1-3.15,2.59-3.15a1.79,1.79,0,0,1,1.66.8h0v-3.38h1.31v7c0,.57,0,1.1.05,1.59Zm-.19-3.47a1.44,1.44,0,0,0-1.33-1.53h-.06c-1,0-1.56.86-1.56,2.07s.61,2,1.54,2a1.48,1.48,0,0,0,1.41-1.53v-1Zm9.64,3.6A2.81,2.81,0,0,1-37,116.5c0-.09,0-.18,0-.27a2.88,2.88,0,0,1,2.62-3.11,1.74,1.74,0,0,1,.32,0,2.79,2.79,0,0,1,2.86,2.72c0,.1,0,.2,0,.3a2.91,2.91,0,0,1-2.64,3.13Zm0-5.2c-.94,0-1.55.89-1.55,2.13s.62,2.1,1.54,2.1,1.54-1,1.54-2.13-.6-2.1-1.53-2.1Zm10,5.07h-1.31v-3.39c0-1-.4-1.57-1.19-1.57a1.37,1.37,0,0,0-1.32,1.41v3.55h-1.32v-4.21c0-.52,0-1.08,0-1.69h1.16l.06.92h0a2.15,2.15,0,0,1,1.87-1c1.24,0,2.06,1,2.06,2.49Zm8.83-4.92h-1.44v2.87c0,.73.25,1.09.76,1.09a2.78,2.78,0,0,0,.58-.06l0,1a2.94,2.94,0,0,1-1,.15c-1,0-1.65-.57-1.65-2.07v-3h-.86v-1H-18v-1.08l1.29-.39v1.47h1.44Zm7,4.92H-9.66v-3.36c0-1-.4-1.59-1.2-1.59a1.28,1.28,0,0,0-1.31,1.26v3.7h-1.31v-8.61h1.31v3.54h0a2,2,0,0,1,1.77-1c1.25,0,2,1,2,2.52Zm7.11-2.64H-5.17a1.68,1.68,0,0,0,1.62,1.76h.24A4.34,4.34,0,0,0-1.72,118l.2.92a5,5,0,0,1-2,.36,2.74,2.74,0,0,1-2.95-2.52,2.37,2.37,0,0,1,0-.46,2.87,2.87,0,0,1,2.58-3.15l.21,0c1.51,0,2.45,1.12,2.45,2.81a2.43,2.43,0,0,1,0,.6Zm-1.2-.93c0-.91-.46-1.56-1.3-1.56a1.57,1.57,0,0,0-1.43,1.56Z" transform="translate(144.34 -108.53)"/></g></g></svg>